<svg width="84" height="85" viewBox="0 0 84 85" fill="none" xmlns="http://www.w3.org/2000/svg">
<path d="M71.1667 42.5H42V13.3333C42 10.8333 40.3333 9.16665 37.8333 9.16665C17 9.16665 0.333344 25.8333 0.333344 46.6666C0.333344 67.5 17 84.1666 37.8333 84.1666C58.6667 84.1666 75.3333 67.5 75.3333 46.6666C75.3333 44.1666 73.6667 42.5 71.1667 42.5ZM42 75.4166C26.1667 77.9166 11.1667 66.6666 9.08334 50.8333C6.58334 35 17.8333 20 33.6667 17.9166V46.6666C33.6667 49.1666 35.3333 50.8333 37.8333 50.8333H66.5833C64.9167 63.75 54.9167 73.75 42 75.4166ZM54.5 0.833313C52 0.833313 50.3333 2.49998 50.3333 4.99998V30C50.3333 32.5 52 34.1666 54.5 34.1666H79.5C82 34.1666 83.6667 32.5 83.6667 30C83.6667 13.75 70.75 0.833313 54.5 0.833313ZM58.6667 25.8333V9.58331C67 11.25 73.25 17.5 74.9167 25.8333H58.6667Z" fill="white"/>
</svg>
