<svg width="18" height="18" viewBox="0 0 18 18" fill="none" xmlns="http://www.w3.org/2000/svg">
<path d="M9.00002 10.6666C9.16484 10.6666 9.32596 10.6178 9.463 10.5262C9.60004 10.4346 9.70685 10.3045 9.76992 10.1522C9.83299 9.99992 9.8495 9.83237 9.81734 9.67072C9.78519 9.50907 9.70582 9.36058 9.58928 9.24404C9.47273 9.12749 9.32425 9.04813 9.1626 9.01597C9.00095 8.98382 8.83339 9.00032 8.68112 9.06339C8.52885 9.12647 8.3987 9.23328 8.30713 9.37032C8.21556 9.50736 8.16669 9.66848 8.16669 9.83329C8.16669 10.0543 8.25449 10.2663 8.41077 10.4225C8.56705 10.5788 8.77901 10.6666 9.00002 10.6666ZM13.1667 10.6666C13.3315 10.6666 13.4926 10.6178 13.6297 10.5262C13.7667 10.4346 13.8735 10.3045 13.9366 10.1522C13.9997 9.99992 14.0162 9.83237 13.984 9.67072C13.9519 9.50907 13.8725 9.36058 13.7559 9.24404C13.6394 9.12749 13.4909 9.04813 13.3293 9.01597C13.1676 8.98382 13.0001 9.00032 12.8478 9.06339C12.6955 9.12647 12.5654 9.23328 12.4738 9.37032C12.3822 9.50736 12.3334 9.66848 12.3334 9.83329C12.3334 10.0543 12.4212 10.2663 12.5774 10.4225C12.7337 10.5788 12.9457 10.6666 13.1667 10.6666ZM9.00002 14C9.16484 14 9.32596 13.9511 9.463 13.8595C9.60004 13.768 9.70685 13.6378 9.76992 13.4855C9.83299 13.3333 9.8495 13.1657 9.81734 13.0041C9.78519 12.8424 9.70582 12.6939 9.58928 12.5774C9.47273 12.4608 9.32425 12.3815 9.1626 12.3493C9.00095 12.3172 8.83339 12.3337 8.68112 12.3967C8.52885 12.4598 8.3987 12.5666 8.30713 12.7037C8.21556 12.8407 8.16669 13.0018 8.16669 13.1666C8.16669 13.3876 8.25449 13.5996 8.41077 13.7559C8.56705 13.9122 8.77901 14 9.00002 14ZM13.1667 14C13.3315 14 13.4926 13.9511 13.6297 13.8595C13.7667 13.768 13.8735 13.6378 13.9366 13.4855C13.9997 13.3333 14.0162 13.1657 13.984 13.0041C13.9519 12.8424 13.8725 12.6939 13.7559 12.5774C13.6394 12.4608 13.4909 12.3815 13.3293 12.3493C13.1676 12.3172 13.0001 12.3337 12.8478 12.3967C12.6955 12.4598 12.5654 12.5666 12.4738 12.7037C12.3822 12.8407 12.3334 13.0018 12.3334 13.1666C12.3334 13.3876 12.4212 13.5996 12.5774 13.7559C12.7337 13.9122 12.9457 14 13.1667 14ZM4.83335 10.6666C4.99817 10.6666 5.15929 10.6178 5.29633 10.5262C5.43337 10.4346 5.54018 10.3045 5.60325 10.1522C5.66633 9.99992 5.68283 9.83237 5.65067 9.67072C5.61852 9.50907 5.53915 9.36058 5.42261 9.24404C5.30607 9.12749 5.15758 9.04813 4.99593 9.01597C4.83428 8.98382 4.66672 9.00032 4.51445 9.06339C4.36218 9.12647 4.23203 9.23328 4.14046 9.37032C4.04889 9.50736 4.00002 9.66848 4.00002 9.83329C4.00002 10.0543 4.08782 10.2663 4.2441 10.4225C4.40038 10.5788 4.61234 10.6666 4.83335 10.6666ZM14.8334 2.33329H14V1.49996C14 1.27895 13.9122 1.06698 13.7559 0.910704C13.5997 0.754423 13.3877 0.666626 13.1667 0.666626C12.9457 0.666626 12.7337 0.754423 12.5774 0.910704C12.4212 1.06698 12.3334 1.27895 12.3334 1.49996V2.33329H5.66669V1.49996C5.66669 1.27895 5.57889 1.06698 5.42261 0.910704C5.26633 0.754423 5.05437 0.666626 4.83335 0.666626C4.61234 0.666626 4.40038 0.754423 4.2441 0.910704C4.08782 1.06698 4.00002 1.27895 4.00002 1.49996V2.33329H3.16669C2.50365 2.33329 1.86776 2.59668 1.39892 3.06553C0.930079 3.53437 0.666687 4.17025 0.666687 4.83329V14.8333C0.666687 15.4963 0.930079 16.1322 1.39892 16.6011C1.86776 17.0699 2.50365 17.3333 3.16669 17.3333H14.8334C15.4964 17.3333 16.1323 17.0699 16.6011 16.6011C17.07 16.1322 17.3334 15.4963 17.3334 14.8333V4.83329C17.3334 4.17025 17.07 3.53437 16.6011 3.06553C16.1323 2.59668 15.4964 2.33329 14.8334 2.33329ZM15.6667 14.8333C15.6667 15.0543 15.5789 15.2663 15.4226 15.4225C15.2663 15.5788 15.0544 15.6666 14.8334 15.6666H3.16669C2.94567 15.6666 2.73371 15.5788 2.57743 15.4225C2.42115 15.2663 2.33335 15.0543 2.33335 14.8333V7.33329H15.6667V14.8333ZM15.6667 5.66663H2.33335V4.83329C2.33335 4.61228 2.42115 4.40032 2.57743 4.24404C2.73371 4.08776 2.94567 3.99996 3.16669 3.99996H14.8334C15.0544 3.99996 15.2663 4.08776 15.4226 4.24404C15.5789 4.40032 15.6667 4.61228 15.6667 4.83329V5.66663ZM4.83335 14C4.99817 14 5.15929 13.9511 5.29633 13.8595C5.43337 13.768 5.54018 13.6378 5.60325 13.4855C5.66633 13.3333 5.68283 13.1657 5.65067 13.0041C5.61852 12.8424 5.53915 12.6939 5.42261 12.5774C5.30607 12.4608 5.15758 12.3815 4.99593 12.3493C4.83428 12.3172 4.66672 12.3337 4.51445 12.3967C4.36218 12.4598 4.23203 12.5666 4.14046 12.7037C4.04889 12.8407 4.00002 13.0018 4.00002 13.1666C4.00002 13.3876 4.08782 13.5996 4.2441 13.7559C4.40038 13.9122 4.61234 14 4.83335 14Z" fill="#21549E"/>
</svg>
