<svg width="22" height="22" viewBox="0 0 22 22" fill="none" xmlns="http://www.w3.org/2000/svg">
<path d="M20.1633 0.451904H1.81425C1.18596 0.452282 0.676632 0.961864 0.676758 1.59041V19.9394C0.677135 20.5677 1.18672 21.077 1.81526 21.0769H11.6942V13.1008H9.01538V9.97888H11.6942V7.68135C11.6942 5.017 13.3208 3.5668 15.6975 3.5668C16.8359 3.5668 17.8141 3.65165 18.0992 3.68954V6.47424H16.4603C15.1673 6.47424 14.9169 7.08869 14.9169 7.99053V9.97888H18.0086L17.6058 13.1008H14.9169V21.0769H20.1633C20.7919 21.077 21.3016 20.5676 21.3018 19.9389C21.3018 19.9388 21.3018 19.9387 21.3018 19.9384V1.5894C21.3015 0.961109 20.7918 0.451778 20.1633 0.451904Z" fill="#0045BF"/>
</svg>
