<svg width="68" height="93" viewBox="0 0 68 93" fill="none" xmlns="http://www.w3.org/2000/svg">
<path d="M55.2084 8.25002C51.3762 5.09829 46.8889 2.84181 42.0736 1.6452C37.2584 0.448599 32.2367 0.342058 27.375 1.33335C20.9016 2.64094 14.9625 5.84199 10.3112 10.5304C5.65993 15.2187 2.50616 21.1831 1.25002 27.6667C0.332716 32.528 0.499405 37.5319 1.7382 42.3214C2.97699 47.1109 5.25736 51.5681 8.41669 55.375C11.3487 58.6836 13.0293 62.9147 13.1667 67.3334V79.8334C13.1667 83.1486 14.4837 86.328 16.8279 88.6722C19.1721 91.0164 22.3515 92.3334 25.6667 92.3334H42.3334C45.6486 92.3334 48.828 91.0164 51.1722 88.6722C53.5164 86.328 54.8334 83.1486 54.8334 79.8334V68.125C54.9732 63.2466 56.7655 58.5602 59.9167 54.8334C65.438 48.0033 68.0407 39.2701 67.1591 30.5318C66.2774 21.7935 61.9828 13.7562 55.2084 8.16669V8.25002ZM46.5 79.8334C46.5 80.9384 46.061 81.9982 45.2796 82.7796C44.4982 83.561 43.4384 84 42.3334 84H25.6667C24.5616 84 23.5018 83.561 22.7204 82.7796C21.939 81.9982 21.5 80.9384 21.5 79.8334V75.6667H46.5V79.8334ZM53.4584 49.6667C49.2688 54.6359 46.8245 60.8419 46.5 67.3334H38.1667V54.8334C38.1667 53.7283 37.7277 52.6685 36.9463 51.8871C36.1649 51.1057 35.1051 50.6667 34 50.6667C32.895 50.6667 31.8351 51.1057 31.0537 51.8871C30.2723 52.6685 29.8334 53.7283 29.8334 54.8334V67.3334H21.5C21.3901 60.9504 19.029 54.8115 14.8334 50C12.0652 46.6833 10.2037 42.7059 9.43048 38.4556C8.65723 34.2053 8.99857 29.8272 10.4212 25.7481C11.8439 21.669 14.2993 18.0281 17.548 15.1805C20.7968 12.333 24.728 10.3759 28.9584 9.50002C32.594 8.75145 36.3507 8.82187 39.9557 9.70614C43.5608 10.5904 46.9236 12.2664 49.8002 14.6123C52.6768 16.9583 54.9949 19.9153 56.5862 23.2688C58.1775 26.6224 59.0021 30.2881 59 34C59.0309 39.7078 57.0712 45.2478 53.4584 49.6667Z" fill="white"/>
</svg>
