<svg width="21" height="23" viewBox="0 0 21 23" fill="none" xmlns="http://www.w3.org/2000/svg">
<path d="M18.9421 7.85595C18.9023 6.98009 18.7562 6.37795 18.5468 5.85619C18.3309 5.30235 17.9987 4.8065 17.5634 4.3943C17.1381 3.97568 16.6232 3.6504 16.0584 3.44436C15.517 3.24147 14.899 3.09983 13.9954 3.06122C13.0851 3.01933 12.7961 3.00964 10.4871 3.00964C8.1782 3.00964 7.8892 3.01933 6.98221 3.05795C6.0786 3.09656 5.45737 3.23832 4.9192 3.44109C4.34768 3.6504 3.83611 3.97241 3.41085 4.3943C2.97896 4.8065 2.6435 5.30562 2.4308 5.85305C2.22147 6.37795 2.07535 6.97682 2.03551 7.85267C1.99229 8.73507 1.9823 9.01519 1.9823 11.2532C1.9823 13.4912 1.99229 13.7713 2.03213 14.6504C2.07197 15.5263 2.21823 16.1284 2.42755 16.6502C2.6435 17.204 2.97896 17.6999 3.41085 18.1121C3.83611 18.5307 4.35105 18.856 4.91583 19.062C5.45737 19.2649 6.07522 19.4065 6.97896 19.4452C7.88582 19.4839 8.17496 19.4935 10.4839 19.4935C12.7928 19.4935 13.0818 19.4839 13.9888 19.4452C14.8924 19.4065 15.5136 19.2649 16.0518 19.062C17.1947 18.6337 18.0983 17.7579 18.5402 16.6502C18.7494 16.1253 18.8957 15.5263 18.9355 14.6504C18.9753 13.7713 18.9853 13.4912 18.9853 11.2532C18.9853 9.01519 18.982 8.73507 18.9421 7.85595ZM17.4107 14.586C17.3741 15.3911 17.2346 15.8258 17.1183 16.1156C16.8325 16.8337 16.2445 17.4036 15.5036 17.6806C15.2047 17.7933 14.7529 17.9285 13.9256 17.9639C13.0286 18.0026 12.7596 18.0122 10.4905 18.0122C8.22142 18.0122 7.94902 18.0026 7.05527 17.9639C6.22472 17.9285 5.77623 17.7933 5.47723 17.6806C5.10854 17.5485 4.77295 17.3392 4.50055 17.0655C4.21817 16.7982 4.00222 16.4762 3.86596 16.1189C3.74968 15.829 3.61018 15.3911 3.57371 14.5893C3.53374 13.7199 3.52388 13.459 3.52388 11.2596C3.52388 9.06022 3.53374 8.7962 3.57371 7.93003C3.61018 7.125 3.74968 6.69028 3.86596 6.40047C4.00222 6.04298 4.21817 5.71783 4.50393 5.45367C4.77957 5.17996 5.11179 4.97065 5.4806 4.8387C5.7796 4.726 6.23147 4.59078 7.05865 4.55531C7.95564 4.51669 8.22479 4.50701 10.4937 4.50701C12.7662 4.50701 13.0352 4.51669 13.929 4.55531C14.7595 4.59078 15.208 4.726 15.507 4.8387C15.8757 4.97065 16.2113 5.17996 16.4837 5.45367C16.7661 5.72097 16.982 6.04298 17.1183 6.40047C17.2346 6.69028 17.3741 7.12814 17.4107 7.93003C17.4505 8.79947 17.4605 9.06022 17.4605 11.2596C17.4605 13.459 17.4505 13.7166 17.4107 14.586Z" fill="white"/>
<path d="M10.4871 7.01868C8.07526 7.01868 6.11841 8.91529 6.11841 11.2532C6.11841 13.591 8.07526 15.4876 10.4871 15.4876C12.8991 15.4876 14.8558 13.591 14.8558 11.2532C14.8558 8.91529 12.8991 7.01868 10.4871 7.01868ZM10.4871 14C8.92242 14 7.65324 12.7699 7.65324 11.2532C7.65324 9.73642 8.92242 8.50635 10.4871 8.50635C12.0519 8.50635 13.321 9.73642 13.321 11.2532C13.321 12.7699 12.0519 14 10.4871 14Z" fill="white"/>
<path d="M16.0486 6.85123C16.0486 7.39714 15.5919 7.83979 15.0286 7.83979C14.4653 7.83979 14.0087 7.39714 14.0087 6.85123C14.0087 6.30519 14.4653 5.86267 15.0286 5.86267C15.5919 5.86267 16.0486 6.30519 16.0486 6.85123Z" fill="white"/>
</svg>
