<svg width="21" height="23" viewBox="0 0 21 23" fill="none" xmlns="http://www.w3.org/2000/svg">
<path d="M18.9421 8.39562C18.9023 7.51977 18.7562 6.91763 18.5468 6.39586C18.3309 5.84203 17.9987 5.34618 17.5634 4.93397C17.1381 4.51536 16.6232 4.19007 16.0584 3.98403C15.517 3.78114 14.899 3.63951 13.9954 3.60089C13.0851 3.559 12.7961 3.54932 10.4871 3.54932C8.1782 3.54932 7.8892 3.559 6.98221 3.59762C6.0786 3.63623 5.45737 3.778 4.9192 3.98076C4.34768 4.19007 3.83611 4.51209 3.41085 4.93397C2.97896 5.34618 2.6435 5.8453 2.4308 6.39272C2.22147 6.91763 2.07535 7.5165 2.03551 8.39235C1.99229 9.27474 1.9823 9.55487 1.9823 11.7929C1.9823 14.0309 1.99229 14.311 2.03213 15.1901C2.07197 16.066 2.21823 16.6681 2.42755 17.1899C2.6435 17.7437 2.97896 18.2395 3.41085 18.6517C3.83611 19.0704 4.35105 19.3956 4.91583 19.6017C5.45737 19.8046 6.07522 19.9462 6.97896 19.9848C7.88582 20.0236 8.17496 20.0331 10.4839 20.0331C12.7928 20.0331 13.0818 20.0236 13.9888 19.9848C14.8924 19.9462 15.5136 19.8046 16.0518 19.6017C17.1947 19.1734 18.0983 18.2975 18.5402 17.1899C18.7494 16.6649 18.8957 16.066 18.9355 15.1901C18.9753 14.311 18.9853 14.0309 18.9853 11.7929C18.9853 9.55487 18.982 9.27474 18.9421 8.39562ZM17.4107 15.1257C17.3741 15.9307 17.2346 16.3654 17.1183 16.6553C16.8325 17.3734 16.2445 17.9433 15.5036 18.2203C15.2047 18.333 14.7529 18.4682 13.9256 18.5036C13.0286 18.5423 12.7596 18.5519 10.4905 18.5519C8.22142 18.5519 7.94902 18.5423 7.05527 18.5036C6.22472 18.4682 5.77623 18.333 5.47723 18.2203C5.10854 18.0882 4.77295 17.8789 4.50055 17.6052C4.21817 17.3379 4.00222 17.0159 3.86596 16.6585C3.74968 16.3687 3.61018 15.9307 3.57371 15.129C3.53374 14.2595 3.52388 13.9987 3.52388 11.7993C3.52388 9.5999 3.53374 9.33587 3.57371 8.46971C3.61018 7.66467 3.74968 7.22995 3.86596 6.94014C4.00222 6.58266 4.21817 6.2575 4.50393 5.99335C4.77957 5.71964 5.11179 5.51033 5.4806 5.37838C5.7796 5.26567 6.23147 5.13045 7.05865 5.09498C7.95564 5.05636 8.22479 5.04668 10.4937 5.04668C12.7662 5.04668 13.0352 5.05636 13.929 5.09498C14.7595 5.13045 15.208 5.26567 15.507 5.37838C15.8757 5.51033 16.2113 5.71964 16.4837 5.99335C16.7661 6.26064 16.982 6.58266 17.1183 6.94014C17.2346 7.22995 17.3741 7.66782 17.4107 8.46971C17.4505 9.33914 17.4605 9.5999 17.4605 11.7993C17.4605 13.9987 17.4505 14.2563 17.4107 15.1257Z" fill="#0045BF"/>
<path d="M10.4871 7.55835C8.07526 7.55835 6.11841 9.45496 6.11841 11.7928C6.11841 14.1307 8.07526 16.0273 10.4871 16.0273C12.8991 16.0273 14.8558 14.1307 14.8558 11.7928C14.8558 9.45496 12.8991 7.55835 10.4871 7.55835ZM10.4871 14.5396C8.92242 14.5396 7.65324 13.3096 7.65324 11.7928C7.65324 10.2761 8.92242 9.04603 10.4871 9.04603C12.0519 9.04603 13.321 10.2761 13.321 11.7928C13.321 13.3096 12.0519 14.5396 10.4871 14.5396Z" fill="#0045BF"/>
<path d="M16.0486 7.3909C16.0486 7.93682 15.5919 8.37946 15.0286 8.37946C14.4653 8.37946 14.0087 7.93682 14.0087 7.3909C14.0087 6.84486 14.4653 6.40234 15.0286 6.40234C15.5919 6.40234 16.0486 6.84486 16.0486 7.3909Z" fill="#0045BF"/>
</svg>
