<svg width="22" height="23" viewBox="0 0 22 23" fill="none" xmlns="http://www.w3.org/2000/svg">
<path d="M3.17797 1.89233C1.66558 1.89233 0.676758 2.88544 0.676758 4.19074C0.676758 5.46722 1.63613 6.48865 3.11993 6.48865H3.14864C4.6906 6.48865 5.65022 5.46722 5.65022 4.19074C5.62139 2.88544 4.6906 1.89233 3.17797 1.89233Z" fill="#0045BF"/>
<path d="M0.93811 8.30469H5.35944V21.6065H0.93811V8.30469Z" fill="#0045BF"/>
<path d="M16.2117 7.99268C13.8266 7.99268 12.2272 10.2339 12.2272 10.2339V8.30487H7.80573V21.6066H12.2269V14.1784C12.2269 13.7807 12.2558 13.3837 12.3726 13.0993C12.6922 12.3052 13.4196 11.4826 14.641 11.4826C16.2409 11.4826 16.8808 12.7024 16.8808 14.4906V21.6066H21.3017V13.9796C21.3017 9.89392 19.1204 7.99268 16.2117 7.99268Z" fill="#0045BF"/>
</svg>
