<svg width="84" height="84" viewBox="0 0 84 84" fill="none" xmlns="http://www.w3.org/2000/svg">
<path d="M58.6667 34.9026L37.8333 23.0462C36.5671 22.3264 35.1309 21.9472 33.6688 21.9469C32.2067 21.9465 30.7703 22.3249 29.5037 23.0441C28.2371 23.7632 27.185 24.7978 26.453 26.044C25.721 27.2901 25.3348 28.704 25.3333 30.1436V53.8564C25.3348 55.2953 25.7206 56.7085 26.4519 57.9542C27.1833 59.1999 28.2344 60.2344 29.5 60.9539C30.7668 61.674 32.2039 62.0531 33.6667 62.0531C35.1295 62.0531 36.5665 61.674 37.8333 60.9539L58.6667 49.0974C59.9295 48.3762 60.9777 47.3409 61.7064 46.0953C62.435 44.8497 62.8186 43.4375 62.8186 42C62.8186 40.5625 62.435 39.1503 61.7064 37.9047C60.9777 36.6591 59.9295 35.6238 58.6667 34.9026ZM54.5 42L33.6667 53.8564V30.1436L54.5 42ZM42 0.974365C33.7591 0.974365 25.7033 3.38048 18.8512 7.88843C11.9992 12.3964 6.65867 18.8037 3.50502 26.3002C0.351368 33.7966 -0.473771 42.0455 1.13395 50.0037C2.74166 57.9619 6.71003 65.272 12.5372 71.0095C18.3644 76.747 25.7887 80.6544 33.8712 82.2374C41.9538 83.8203 50.3316 83.0079 57.9452 79.9028C65.5587 76.7976 72.0662 71.5393 76.6446 64.7926C81.223 58.046 83.6667 50.1141 83.6667 42C83.6667 36.6124 82.5889 31.2776 80.495 26.3002C78.401 21.3227 75.3319 16.8001 71.4628 12.9905C67.5937 9.18091 63.0004 6.15899 57.9452 4.09726C52.8899 2.03552 47.4718 0.974365 42 0.974365ZM42 74.8205C35.4073 74.8205 28.9626 72.8956 23.481 69.2893C17.9994 65.6829 13.7269 60.557 11.204 54.5599C8.6811 48.5627 8.02099 41.9636 9.30716 35.597C10.5933 29.2305 13.768 23.3824 18.4298 18.7924C23.0915 14.2024 29.031 11.0765 35.497 9.81013C41.963 8.54374 48.6652 9.1937 54.7561 11.6778C60.847 14.1619 66.0529 18.3686 69.7157 23.7659C73.3784 29.1632 75.3333 35.5087 75.3333 42C75.3333 50.7045 71.8214 59.0526 65.5702 65.2076C59.319 71.3626 50.8406 74.8205 42 74.8205Z" fill="#0077B5"/>
</svg>
